<svg xmlns="http://www.w3.org/2000/svg" viewBox="0 0 50 50" id="ssl-certificate">
    <path fill="#E7E3E6"
          d="M45.48 42.496H4.52A3.52 3.52 0 0 1 1 38.975V6.56A3.52 3.52 0 0 1 4.52 3.04h40.96A3.52 3.52 0 0 1 49 6.56v32.415a3.52 3.52 0 0 1-3.52 3.52z"></path>
    <path fill="#85BD57"
          d="M19.025 16.471c-.132.109-.199.253-.199.433s.081.322.243.429c.162.105.536.23 1.122.375.586.144 1.04.36 1.364.649.324.288.486.709.486 1.263s-.207 1.003-.622 1.346c-.415.345-.962.517-1.639.517-.977 0-1.857-.361-2.64-1.086l.82-1.007c.666.583 1.281.874 1.847.874.253 0 .452-.054.596-.163.144-.11.216-.256.216-.441s-.076-.333-.23-.442c-.152-.11-.456-.22-.909-.332-.719-.17-1.244-.392-1.576-.666-.333-.274-.5-.704-.5-1.29s.211-1.038.632-1.355c.42-.319.946-.478 1.577-.478.412 0 .824.071 1.236.213.412.14.771.34 1.078.6l-.698 1.007c-.536-.406-1.09-.609-1.66-.609-.23 0-.412.054-.544.163zm5.635 0c-.132.109-.199.253-.199.433s.081.322.243.429c.162.105.536.23 1.122.375.585.144 1.04.36 1.364.649.324.288.486.709.486 1.263s-.208 1.003-.623 1.346c-.415.345-.961.517-1.638.517-.977 0-1.858-.361-2.64-1.086l.82-1.007c.666.583 1.281.874 1.847.874.253 0 .451-.054.596-.163.144-.11.216-.256.216-.441s-.077-.333-.23-.442c-.153-.11-.456-.22-.909-.332-.719-.17-1.244-.392-1.577-.666-.333-.274-.499-.704-.499-1.29s.21-1.038.632-1.355c.42-.319.946-.478 1.576-.478.412 0 .825.071 1.237.213.412.14.771.34 1.077.6l-.697 1.007c-.536-.406-1.09-.609-1.661-.609-.23 0-.41.054-.543.163zm4.19 4.942v-6.174h1.378v4.946h2.633v1.228h-4.01z"></path>
    <path fill="#53B1E2" d="M49 10.066V6.561a3.52 3.52 0 0 0-3.52-3.521H4.52A3.52 3.52 0 0 0 1 6.56v3.506h48z"></path>
    <path fill="#E7E3E6"
          d="M17.065 10.714H4.45v-2.72c0-.675.547-1.223 1.223-1.223H15.84c.676 0 1.224.548 1.224 1.223v2.72z"></path>
    <path fill="#D2D2D2"
          d="M29.678 10.066H17.065V7.994c0-.675.547-1.223 1.223-1.223h10.167c.676 0 1.223.548 1.223 1.223v2.072z"></path>
    <circle cx="40.43" cy="6.855" r="1.35" fill="#E7E3E6"></circle>
    <circle cx="36.315" cy="6.855" r="1.35" fill="#E7E3E6"></circle>
    <path fill="#656766" d="m38.25 36.573 2.315 10.387-4.682-2.557v-7.83z"></path>
    <path fill="#4E4C4D" d="M33.515 36.573 31.201 46.96l4.682-2.557v-7.83z"></path>
    <path fill="#EC6E62"
          d="M41.585 35.561a3.338 3.338 0 0 1-3.338 3.338l-.006.006a3.338 3.338 0 0 1-4.72 0l-.006-.006a3.338 3.338 0 0 1-3.338-3.338v-.009a3.334 3.334 0 0 1 0-4.714v-.014a3.334 3.334 0 0 1 3.333-3.333h.014a3.334 3.334 0 0 1 4.714 0h.01a3.338 3.338 0 0 1 3.337 3.338 3.346 3.346 0 0 1 0 4.732z"></path>
    <circle cx="35.883" cy="33.198" r="3.375" fill="#FFC966"></circle>
    <g fill="#D2D2D2">
        <path d="M5.641 26.514h18.921v2.225H5.641zM5.641 30.832h18.921v2.225H5.641zM5.641 35.149h11.153v2.225H5.641z"></path>
    </g>
</svg>